<svg xmlns="http://www.w3.org/2000/svg" xmlns:xlink="http://www.w3.org/1999/xlink" version="1.1" width="1000" height="1000" viewBox="0 0 1000 1000" xml:space="preserve">
<desc>Created with Fabric.js 3.5.0</desc>
<defs>
</defs>
<rect x="0" y="0" width="100%" height="100%" fill="none"/>
<g transform="matrix(0 13.3636 -13.3636 0 499.9999 500)" id="811880">
<path style="stroke: none; stroke-width: 1; stroke-dasharray: none; stroke-linecap: butt; stroke-dashoffset: 0; stroke-linejoin: miter; stroke-miterlimit: 4; is-custom-font: none; font-file-url: none; fill: rgb(252,181,0); fill-rule: nonzero; opacity: 1;" vector-effect="non-scaling-stroke" transform=" translate(-37.5293, -37.5)" d="M 69.6094 36.709 L 48.1055 25.957 V 14.0625 C 48.1055 11.2653 46.9943 8.58266 45.0164 6.60473 C 43.0385 4.62681 40.3558 3.51563 37.5586 3.51562 C 34.7614 3.51563 32.0788 4.62681 30.1008 6.60473 C 28.1229 8.58266 27.0117 11.2653 27.0117 14.0625 V 25.957 L 5.44924 36.709 C 4.87069 37.0042 4.38436 37.4527 4.04337 38.0055 C 3.70238 38.5584 3.51983 39.1942 3.51565 39.8438 V 49.2188 C 3.5138 49.7411 3.62838 50.2573 3.85106 50.7299 C 4.07374 51.2024 4.39893 51.6194 4.80297 51.9505 C 5.20701 52.2815 5.67976 52.5184 6.18684 52.6439 C 6.69391 52.7694 7.22258 52.7803 7.7344 52.6758 L 26.9531 48.8086 V 52.4414 L 23.291 56.1035 C 22.6403 56.7699 22.2728 57.6623 22.2656 58.5938 V 67.9688 C 22.2668 68.5438 22.409 69.1098 22.6798 69.6172 C 22.9506 70.1245 23.3418 70.5576 23.8189 70.8786 C 24.2961 71.1996 24.8447 71.3987 25.4167 71.4583 C 25.9886 71.5179 26.5665 71.4364 27.0996 71.2207 L 37.5 67.0605 L 47.9004 71.2207 C 48.3188 71.3926 48.7664 71.4821 49.2188 71.4844 C 49.9209 71.487 50.6066 71.2721 51.1817 70.8691 C 51.6592 70.5508 52.0508 70.1196 52.3217 69.6136 C 52.5925 69.1077 52.7343 68.5427 52.7344 67.9688 V 58.5938 C 52.7399 58.1354 52.6518 57.6807 52.4755 57.2575 C 52.2992 56.8344 52.0384 56.4517 51.709 56.1328 L 48.1055 52.4707 V 48.8086 L 67.3535 52.6758 C 67.861 52.7787 68.385 52.7663 68.8871 52.6395 C 69.3891 52.5128 69.8562 52.2748 70.2539 51.9434 C 70.6574 51.6132 70.9823 51.1974 71.2053 50.7262 C 71.4282 50.255 71.5436 49.7401 71.543 49.2188 V 39.8438 C 71.5455 39.1928 71.3657 38.5542 71.0239 38.0002 C 70.6822 37.4462 70.1922 36.9989 69.6094 36.709 Z M 64.5117 44.9414 L 45.293 41.0742 C 44.7812 40.9697 44.2525 40.9806 43.7454 41.1061 C 43.2383 41.2316 42.7656 41.4685 42.3616 41.7995 C 41.9575 42.1306 41.6323 42.5476 41.4097 43.0201 C 41.187 43.4927 41.0724 44.0089 41.0742 44.5312 V 53.9062 C 41.0765 54.83 41.4453 55.7151 42.0996 56.3672 L 45.7031 60.0293 V 62.7832 L 38.8184 60.0293 C 38.4006 59.8552 37.9526 59.7656 37.5 59.7656 C 37.0475 59.7656 36.5994 59.8552 36.1817 60.0293 L 29.2969 62.7832 V 60.0586 L 32.959 56.3965 C 33.6098 55.7301 33.9773 54.8377 33.9844 53.9062 V 44.5312 C 33.9862 44.0089 33.8717 43.4927 33.649 43.0201 C 33.4263 42.5476 33.1011 42.1306 32.6971 41.7995 C 32.293 41.4685 31.8203 41.2316 31.3132 41.1061 C 30.8061 40.9806 30.2775 40.9697 29.7656 41.0742 L 10.5469 44.9414 V 42.0117 L 32.0508 31.2598 C 32.6336 30.9699 33.1236 30.5226 33.4653 29.9686 C 33.8071 29.4145 33.9869 28.7759 33.9844 28.125 V 14.0625 C 33.9844 13.1301 34.3548 12.2359 35.0141 11.5766 C 35.6734 10.9173 36.5676 10.5469 37.5 10.5469 C 38.4324 10.5469 39.3266 10.9173 39.9859 11.5766 C 40.6453 12.2359 41.0156 13.1301 41.0156 14.0625 V 28.125 C 41.0159 28.779 41.2 29.4198 41.5471 29.9741 C 41.8942 30.5285 42.3903 30.974 42.9785 31.2598 L 64.4531 42.0117 L 64.5117 44.9414 Z" stroke-linecap="round"/>
</g>
</svg>